<svg height="17" viewBox="0 0 68 17" width="68" xmlns="http://www.w3.org/2000/svg"><path d="m67.2271795 1.8903345c-.225426-.33591568-.4991576-.57351458-1.6101857-.65544523-.2978843 0-1.2800976-.05735146-2.9385888-.05735146-4.3555522 0-7.3182938 1.34366272-8.8560211 3.99002284.413281-2.66001523-2.1469142-3.99275386-7.6805855-3.99821591-6.50515 0-10.5655015 2.65728421-12.1810544 7.97185262-.5885925 1.55396784-.6537209 3.26279384-.1851714 4.85848774l-1.5377273.1065099c-1.1995883.0901237-2.7775702.1802474-3.7436816.1802474-2.3830748 0-3.8590783-.4041912-4.4280105-1.2125737-.5152595-.7291828-.458903-2.0810386.1368657-4.04737425.9902642-3.27722616 3.4538483-4.73559179 7.3827012-4.73559179 2.0368849 0 4.0254642.22121276 4.0254642.22121276.1218497-.01944853.2302069-.08973466.2989755-.19393115.0687687-.1041965.0917162-.23286006.0633162-.35500423v-.31133648l-.1368658-1.09787077c-.0912438-.72098975-.6279724-1.14702915-1.6101856-1.2781182-.8319293-.06554452-1.6665421-.09831678-2.5038387-.09831678h-.0563565c-5.1364922 0-8.7164716 1.71235066-10.7399383 5.13705199.7406854-3.42470133-1.637022-5.13705199-7.1331224-5.13705199-2.1956572-.04053776-4.3917932.04699843-6.57760836.26217809-.82583207-.01146101-1.57123917.50187964-1.86781535 1.28631127l-.43475013 1.40920724c-.08050928.2621781.04025464.38507408.3703427.38507408.24152785 0 1.17543553-.12289598 2.76146839-.25398503 2.10129225-.17205437 3.66317235-.25398503 4.68564025-.25398503 3.027149 0 4.3018793.77014815 3.8241909 2.31044444-.0904801.32635831-.3562782.57139105-.6843289.63086603-2.8607632.48612188-5.1338086.83296165-6.81913622 1.04051931-4.72857852.61174888-7.46052684 2.10834879-8.19584495 4.48979979-1.00904968 3.2772262 1.51894179 4.9158393 7.5839744 4.9158393 2.55139337.033094 5.10120617-.1450094 7.62422907-.5325493 1.1834864-.2048266 1.7792551-.50797 2.020783-1.2863112l1.1271299-3.6541072c-.112713 3.6459141 2.4152785 5.4893538 7.5678726 5.4893538 1.7881804.036107 3.5767425-.0487416 5.3538673-.253985 1.0627225-.1884405 1.56188-.4178464 1.795357-1.2289598l.2254259-1.1470292c1.0734571 1.7423919 3.4887356 2.6135879 7.2458355 2.6135879 3.9288529 0 6.2206839-.1119719 6.8754927-.3359157.4569876-.0947758.8357526-.4185555 1.006366-.8602719.022233-.0749973.0383889-.1517227.0483056-.2294058l.4589029-1.5566824c.0805093-.2703712 0-.4014602-.3622918-.3850741l-2.5118896.122896c-1.6799603.0928547-2.9949453.1392821-3.9449548.1392821-1.2376331.0646742-2.4778065-.0595995-3.6792742-.368688-.9611621-.3283816-1.5586913-1.3040553-1.4250143-2.3268305l7.9704189-1.0405193c3.5692449-.4642737 5.9576869-1.57853062 7.1653262-3.3427707l-2.697061 9.5367281c-.0578772.1447168-.036456.3097695.0563565.4342325.1426369.1363695.3368495.20225.5313613.1802474h3.2928296c.3780815.0427912.7339975-.1895632.8533984-.5571284l2.914436-10.30687629c.3864446-1.35185579 1.6101857-2.01549409 3.7517326-2.01549409 1.9322228 0 3.3894408 0 4.3233485.05735146h.0724583c.3144547.00420723.5921996-.20777909.676278-.51616312l.5152594-1.41740031c.1016383-.23466757.0804588-.50562495-.0563565-.72098975zm-53.1361264 12.3961079c-1.4709311.1906527-2.9534853.2727976-4.4360615.245792-3.35455344 0-4.81982238-.6882175-4.39580682-2.0646525.30593527-.9831678 1.18348645-1.5812616 2.64070446-1.7778952l7.62422906-1.04051928-1.4330652 4.62908198zm35.230862-8.3487336c-.3220372 1.05963645-1.8114589 1.78335723-4.4682652 2.17116232l-6.3843861.90943026.1610185-.52435618c.3166433-1.41837201 1.1149269-2.67755653 2.25426-3.55579038.9661113-.62813501 2.538726-.94220252 4.7178439-.94220252 2.8607632 0 4.0952388.64452114 3.703427 1.93356343z" fill="#090947" transform="translate(-.211 -.422)"/></svg>