<svg id="Layer_1" data-name="Layer 1" xmlns="http://www.w3.org/2000/svg" viewBox="0 0 492.28 495.63"><defs><style>.cls-1{fill:#c2c2d1;}.cls-2{fill:#0a0a47;}</style></defs><path class="cls-1" d="M471.17,48.81H394.32a9.54,9.54,0,0,0-9.51,9.51v76.85a9.54,9.54,0,0,0,9.51,9.51h76.85a9.54,9.54,0,0,0,9.51-9.51V58.32A9.54,9.54,0,0,0,471.17,48.81Zm-7.4,78.51a10.27,10.27,0,0,1-7.88,3.67H404.5a10.29,10.29,0,0,1-7.88-3.67,10.4,10.4,0,0,1-2.28-8.46,36.23,36.23,0,0,1,19.44-26.25,21.1,21.1,0,1,1,32.83,0,36.25,36.25,0,0,1,19.44,26.25A10.33,10.33,0,0,1,463.77,127.32Z"/><rect class="cls-1" x="147.65" y="162.95" width="240.84" height="36.82"/><rect class="cls-1" x="147.65" y="234.75" width="240.84" height="36.82"/><rect class="cls-1" x="147.65" y="305.11" width="240.84" height="36.82"/><path class="cls-2" d="M426.87,168.66a6.39,6.39,0,0,0-6.38,6.38V407.55a19.62,19.62,0,0,1-19.6,19.59H101.15a19.61,19.61,0,0,1-19.59-19.43h32.51a6.38,6.38,0,0,0,6.38-6.38V295a6.38,6.38,0,0,0-6.38-6.38H56.85a10.2,10.2,0,1,1,0-20.39h57.22a6.39,6.39,0,0,0,6.38-6.38V92.59a6.39,6.39,0,0,0-6.38-6.38H40.45A31.29,31.29,0,0,0,9.19,117.47V375.36a32.39,32.39,0,0,0,32.35,32.35H68.79a32.4,32.4,0,0,0,32.36,32.19H400.89a32.39,32.39,0,0,0,32.36-32.35V175A6.4,6.4,0,0,0,426.87,168.66ZM22,117.47A18.52,18.52,0,0,1,40.45,99h67.24V255.45H56.85a23,23,0,1,0,0,45.91h50.84V395H41.54A19.61,19.61,0,0,1,22,375.36Z"/><path class="cls-2" d="M458.49,39.71H401.9a28.77,28.77,0,0,0-28.74,28.74V86.21H142.67a6.38,6.38,0,1,0,0,12.76H373.16V125a28.77,28.77,0,0,0,28.74,28.74h56.59A28.77,28.77,0,0,0,487.23,125V68.45A28.77,28.77,0,0,0,458.49,39.71Zm16,28.74V125a16,16,0,0,1-16,16H401.9a16,16,0,0,1-16-16V68.45a16,16,0,0,1,16-16h56.59A16,16,0,0,1,474.47,68.45Z"/><path class="cls-2" d="M141,191a16.07,16.07,0,0,0,16,16.05H381.64A16.07,16.07,0,0,0,397.69,191V172.61a16.07,16.07,0,0,0-16.05-16.05H157a16.07,16.07,0,0,0-16,16.05Zm12.76,0V172.61a3.29,3.29,0,0,1,3.29-3.29H381.64a3.29,3.29,0,0,1,3.29,3.29V191a3.29,3.29,0,0,1-3.29,3.29H157A3.29,3.29,0,0,1,153.72,191Z"/><path class="cls-2" d="M141,262.77a16.07,16.07,0,0,0,16,16.05H381.64a16.07,16.07,0,0,0,16.05-16.05V243.55a16.08,16.08,0,0,0-16.05-16.06H157a16.08,16.08,0,0,0-16,16.06Zm12.76,0V243.55a3.3,3.3,0,0,1,3.29-3.3H381.64a3.29,3.29,0,0,1,3.29,3.3v19.22a3.29,3.29,0,0,1-3.29,3.29H157A3.29,3.29,0,0,1,153.72,262.77Z"/><path class="cls-2" d="M342,386.75a6.38,6.38,0,0,0,0,12.76h48.64a6.38,6.38,0,0,0,0-12.76Z"/><path class="cls-2" d="M153.53,386.75a6.38,6.38,0,1,0,0,12.76H312.07a6.38,6.38,0,1,0,0-12.76Z"/><path class="cls-2" d="M40.29,129.17a6.5,6.5,0,0,0,1.44-.17,6.28,6.28,0,1,0-1.44.17Z"/><path class="cls-2" d="M62.56,129.29H91.3a6.38,6.38,0,1,0,0-12.75H62.56a6.38,6.38,0,1,0,0,12.75Z"/><path class="cls-2" d="M40.25,163.45a6.29,6.29,0,1,0-4.44-1.84A6.31,6.31,0,0,0,40.25,163.45Z"/><path class="cls-2" d="M62.56,163.56H91.3a6.38,6.38,0,1,0,0-12.76H62.56a6.38,6.38,0,0,0,0,12.76Z"/><path class="cls-2" d="M40.23,197.72a5.75,5.75,0,0,0,1-.09,6.22,6.22,0,1,0-1,.09Z"/><path class="cls-2" d="M62.56,197.82H91.3a6.38,6.38,0,1,0,0-12.76H62.56a6.38,6.38,0,0,0,0,12.76Z"/><path class="cls-2" d="M38.87,219.53a6.28,6.28,0,0,0,1.43,12.4,6.68,6.68,0,0,0,1.46-.17,6.28,6.28,0,1,0-2.89-12.23Z"/><path class="cls-2" d="M62.56,232.08H91.3a6.38,6.38,0,1,0,0-12.76H62.56a6.38,6.38,0,1,0,0,12.76Z"/><path class="cls-2" d="M37,329.51a6.28,6.28,0,0,0,3.3.94,6.52,6.52,0,0,0,1.45-.17,6.29,6.29,0,0,0,4.67-7.56A6.28,6.28,0,0,0,35,320.86a6.29,6.29,0,0,0,2,8.65Z"/><path class="cls-2" d="M62.56,330.63H91.3a6.38,6.38,0,1,0,0-12.76H62.56a6.38,6.38,0,0,0,0,12.76Z"/><path class="cls-2" d="M174.62,133.18a6.38,6.38,0,0,0,0-12.76H147.34a6.38,6.38,0,1,0,0,12.76Z"/><path class="cls-2" d="M447.38,92.44a21.59,21.59,0,1,0-34.36,0,37,37,0,0,0-19.17,26.34,9.43,9.43,0,0,0-.14,1.19,10.82,10.82,0,0,0,10.79,11.51h51.39a10.82,10.82,0,0,0,10.66-12.7A37,37,0,0,0,447.38,92.44Zm6.1,26.29H406.91a24.14,24.14,0,0,1,46.57,0ZM430.2,88.21A8.83,8.83,0,1,1,439,79.38,8.84,8.84,0,0,1,430.2,88.21Z"/><path class="cls-2" d="M141,332.94A16.07,16.07,0,0,0,157,349H381.64a16.07,16.07,0,0,0,16.05-16.05v-20a16.07,16.07,0,0,0-16.05-16.06H157a16.07,16.07,0,0,0-16,16.06Zm12.76,0v-20a3.3,3.3,0,0,1,3.29-3.3H381.64a3.29,3.29,0,0,1,3.29,3.3v20a3.29,3.29,0,0,1-3.29,3.29H157A3.29,3.29,0,0,1,153.72,332.94Z"/><path class="cls-2" d="M172.72,188.2h9.06a6.38,6.38,0,1,0,0-12.76h-9.06a6.38,6.38,0,1,0,0,12.76Z"/><path class="cls-2" d="M172.72,259.54h9.06a6.38,6.38,0,0,0,0-12.76h-9.06a6.38,6.38,0,1,0,0,12.76Z"/><path class="cls-2" d="M172.72,329.9h9.06a6.38,6.38,0,0,0,0-12.76h-9.06a6.38,6.38,0,0,0,0,12.76Z"/></svg>