<svg height="33" viewBox="0 0 59 33" width="59" xmlns="http://www.w3.org/2000/svg">
  <g fill="#090947" transform="translate(.278 -.354)">
    <path d="M48.3756307,0.670036765 C46.0525004,0.67314617 43.8017106,1.49264581 42.0038954,2.989949 C38.2936883,-0.0857936236 32.9706317,-0.0857936236 29.2604247,2.989949 C25.5492458,-0.0830125717 20.2281328,-0.0830125717 16.516954,2.989949 C14.7194294,1.49212291 12.4684502,0.672554311 10.1452186,0.670036765 C4.59423803,0.818578496 0.170168994,5.44069569 0.170168994,11.0916301 C0.170168994,16.7425645 4.59423803,21.3646817 10.1452186,21.5132234 C12.4684502,21.5107059 14.7194294,20.6911373 16.516954,19.1933112 C20.2281328,22.2662728 25.5492458,22.2662728 29.2604247,19.1933112 C32.9716035,22.2662728 38.2927165,22.2662728 42.0038954,19.1933112 C43.80142,20.6911373 46.0523992,21.5107059 48.3756307,21.5132234 C53.9266113,21.3646817 58.3506803,16.7425645 58.3506803,11.0916301 C58.3506803,5.44069569 53.9266113,0.818578496 48.3756307,0.670036765 Z M10.0531824,19.0780361 C5.73457239,19.0780361 2.23364723,15.5153029 2.23364723,11.1204489 C2.23364723,6.72559485 5.73457239,3.16286172 10.0531824,3.16286172 C11.7492358,3.16418319 13.3971738,3.73670465 14.7399478,4.7911231 C11.9417296,8.52488439 11.9417296,13.701604 14.7399478,17.4353653 C13.3989956,18.4949416 11.7508896,19.0725885 10.0531824,19.0780361 Z M16.4249178,15.6413959 C14.5911937,12.9189121 14.5911937,9.3291904 16.4249178,6.60670659 C18.2629115,9.32621327 18.2685374,12.9159367 16.4390772,15.6413959 L16.4249178,15.6413959 Z M22.7966531,19.0780361 C21.0884096,19.0769139 19.4292707,18.4963575 18.081569,17.4281606 C20.8797871,13.6943993 20.8797871,8.5176797 18.081569,4.78391841 C20.8431427,2.61652997 24.6935259,2.61652997 27.4550997,4.78391841 C24.6568815,8.5176797 24.6568815,13.6943993 27.4550997,17.4281606 C26.1320891,18.4764016 24.5086236,19.0557846 22.8320517,19.0780361 L22.7966531,19.0780361 Z M29.1683885,15.6341912 C27.3346644,12.9117074 27.3346644,9.3219857 29.1683885,6.5995019 C31.0203148,9.31315889 31.0400118,12.9068847 29.2179464,15.6413959 L29.1683885,15.6341912 Z M35.5401238,19.0780361 C33.8318803,19.0769139 32.1727414,18.4963575 30.8250397,17.4281606 C33.6196598,13.6958382 33.6196598,8.52344544 30.8250397,4.7911231 C33.5888524,2.62255525 37.4418373,2.62255525 40.2056501,4.7911231 C37.4110299,8.52344544 37.4110299,13.6958382 40.2056501,17.4281606 C38.8886642,18.4724346 37.2732055,19.0516212 35.6038412,19.0780361 L35.5401238,19.0780361 Z M41.9118592,15.6341912 C40.0781351,12.9117074 40.0781351,9.3219857 41.9118592,6.5995019 C43.772368,9.30718403 43.8033206,12.900942 41.989736,15.6413959 L41.9118592,15.6341912 Z M48.2835945,19.0780361 C46.5729252,19.0785172 44.9110463,18.4978738 43.5614307,17.4281606 C46.3536251,13.6950053 46.3536251,8.5242784 43.5614307,4.7911231 C44.9061246,3.73519802 46.5567974,3.1625914 48.2552757,3.16286172 C52.5738858,3.12903984 56.1017533,6.66435493 56.1349884,11.059209 C56.1682236,15.454063 52.6942408,19.0442142 48.3756307,19.0780361 L48.2835945,19.0780361 Z"/>
    <polygon points="23.519 27.601 23.519 27.601 24.892 27.601 24.892 26.376 23.519 26.376"/>
    <rect width="1.373" height="4.597" x="23.519" y="28.271"/>
    <path d="M3.87259915 26.3763935L.545137358 32.8606203 2.12391178 32.8606203 2.79648385 31.513342 6.37173535 31.513342 7.07970595 32.8606203 8.65848037 32.8606203 5.33809828 26.3763935 3.86551945 26.3763935 3.87259915 26.3763935zM3.31330238 30.4038188L4.59472916 27.7813093 5.88323564 30.4038188 3.31330238 30.4038188zM13.3664848 31.5493655C12.9355804 31.8008185 12.4472637 31.932507 11.9505436 31.9312144 11.634963 31.9931571 11.3094596 31.8955344 11.0773269 31.6693253 10.8451942 31.4431162 10.7352533 31.1164066 10.7823922 30.7928724L10.7823922 28.2712287 9.41600891 28.2712287 9.41600891 30.9801945C9.41600891 32.6156606 10.4708851 33.0119189 11.6319569 33.0119189 12.2824924 33.0022818 12.915636 32.7967006 13.4514413 32.4211338L13.5363978 32.8822343 14.7399478 32.8822343 14.7399478 28.2712287 13.3664848 28.2712287 13.3664848 31.5493655zM20.4320314 28.5810306C19.9058561 28.2609322 19.3034333 28.093961 18.6904237 28.0983159 16.9912943 28.0983159 16.0638528 29.0205171 16.0638528 30.5335033 16.0638528 32.0464896 16.998374 32.9758954 18.6125469 32.9758954 19.296443 32.9903441 19.9642304 32.7638184 20.5028284 32.3346774L20.5948646 32.8390062 21.7984146 32.8390062 21.7984146 26.3547794 20.4249517 26.3547794 20.4249517 28.5161883 20.4320314 28.5810306zM20.4320314 31.5565702C19.9614936 31.8174961 19.4313775 31.9467713 18.8957352 31.9312144 18.1606526 31.9312144 17.5647505 31.3247918 17.5647505 30.5767315 17.5647505 29.8286712 18.1606526 29.2222486 18.8957352 29.2222486 19.4315187 29.205297 19.9619889 29.3346585 20.4320314 29.5968928L20.4320314 31.5565702z"/>
  </g>
</svg>