<svg height="18" viewBox="0 0 89 18" width="89" xmlns="http://www.w3.org/2000/svg"><g fill="#090947" transform="translate(.204 -.12)"><path d="m2.518 14.862-.009-.008h.009v-11.898h-1.736v13.372h11.354v-1.474h-9.618z"/><path d="m8.886 7.712h1.325l2.361-4.756h-1.892z"/><path d="m22.0176818.73683224c-2.2472-.09160124-4.4333004.75690845-6.0497889 2.34815587-1.6164884 1.59124742-2.5224537 3.78652161-2.5071577 6.07517632 0 4.86476737 3.8259425 8.28098957 8.5569466 8.28098957 4.7310042 0 8.589858-3.3492374 8.589858-8.28098957.0157161-2.29472079-.8947234-4.49544107-2.5185026-6.08774114-1.6237791-1.59230007-3.818576-2.43661695-6.0713554-2.33559105zm-.0575948 15.07156856c-2.6682396-.0001358-5.0724321-1.6395096-6.0872646-4.1507916-1.0148324-2.51128194-.4395118-5.39759445 1.4566756-7.30796194s4.7380656-2.46680822 7.1954569-1.40887296c2.4573914 1.05793526 4.0440811 3.5209254 4.0173987 6.23613632-.0797885 3.65158658-2.9933097 6.57948338-6.5822666 6.61474398zm23.292996-8.95921021c-.1727845-2.37795859-1.6455666-3.89348854-4.4018908-3.89348854h-7.9398591v13.39694985h1.8183512v-5.6099728h5.1588514l3.801259 5.5848535h2.2791098s-2.7316406-3.7678922-3.8753095-5.5681073c1.8447203-.3527567 3.1758327-2.00016348 3.159488-3.91023471zm-10.5316266 2.30260074v-4.58008221h6.0885966c1.0756158-.1149401 2.0912221.52585258 2.46835 1.55739542.1733208.65801963.084625 1.35905184-.246835 1.95093081-.5695009.78751555-1.5163272 1.19541512-2.46835 1.06338289h-5.8829007z"/><path d="m54.057.837-1.539 1.817 4.805-1.817z"/><path d="m48.207 16.328h11.256v-1.474h-9.339v-4.639h7.027v-1.499h-7.027v-4.27h9.339v-1.49h-11.256z"/><path d="m66.7441835 2.94732896-6.3930264 13.39694984h2.1803758l1.6455666-3.4580877h7.6683407l1.6455666 3.4580877h2.1310088l-6.4177099-13.39694984h-2.46835zm-1.7443006 8.23912414 3.0196148-6.33843189 3.0525261 6.33843189z"/><path d="m78.354 2.956h-1.753v13.372h11.363v-1.474h-9.61z"/></g></svg>