<?xml version="1.0" encoding="UTF-8"?>
<svg width="90px" height="21px" viewBox="0 0 90 21" version="1.1" xmlns="http://www.w3.org/2000/svg" xmlns:xlink="http://www.w3.org/1999/xlink">
    <!-- Generator: Sketch 54.1 (76490) - https://sketchapp.com -->
    <title>revolut</title>
    <desc>Created with Sketch.</desc>
    <g id="Page-1" stroke="none" stroke-width="1" fill="none" fill-rule="evenodd">
        <g id="revolut" fill="#0A0A47" fill-rule="nonzero">
            <path d="M58.1,7.6 C56.6,6.3 54.8,5.6 52.7,5.6 C50.6,5.6 48.8,6.2 47.3,7.6 C45.8,8.9 45,10.7 45,13 C45,15.3 45.8,17.1 47.3,18.4 C48.8,19.7 50.6,20.3 52.7,20.3 C54.8,20.3 56.6,19.7 58.1,18.4 C59.6,17.1 60.4,15.3 60.4,13 C60.4,10.7 59.6,8.9 58.1,7.6 Z M55.5,16 C54.7,16.7 53.7,17.1 52.6,17.1 C51.5,17.1 50.6,16.7 49.8,16 C49,15.2 48.6,14.3 48.6,13.1 C48.6,11.9 49,10.9 49.8,10.2 C50.7,9.3 51.6,9 52.7,9 C53.8,9 54.8,9.4 55.6,10.1 C56.4,10.8 56.8,11.8 56.8,13 C56.8,14.2 56.4,15.2 55.5,16 Z" id="Shape"></path>
            <rect id="Rectangle" x="62.2" y="0.7" width="3.6" height="19.2"></rect>
            <path d="M77.2,13.7 C77.2,15.5 76.2,16.8 74.3,16.8 C72.3,16.8 71.4,15.6 71.4,13.7 L71.4,6.1 L67.8,6.1 L67.8,14.4 C67.8,17.6 69.8,20.4 74.3,20.4 L74.3,20.4 C78.7,20.4 80.8,17.5 80.8,14.4 L80.8,6.1 L77.2,6.1 L77.2,13.7 Z" id="Path"></path>
            <polygon id="Path" points="37.7 15.5 34.1 6.1 30.4 6.1 36 20 39.4 20 45.1 6.1 41.3 6.1"></polygon>
            <path d="M23.5,5.7 C21.4,5.7 19.7,6.4 18.2,7.8 C16.8,9.2 16.1,10.9 16.1,13.1 C16.1,15.3 16.8,17 18.2,18.4 C19.6,19.8 21.3,20.4 23.3,20.4 C26.4,20.4 28.6,19.1 29.9,16.3 L27.2,14.8 C26.3,16.5 25.1,17.3 23.3,17.3 C21.2,17.3 19.7,16 19.5,13.8 L30.3,13.8 L30.3,12.6 L30.3,12.6 C30.3,10.6 29.7,8.9 28.4,7.6 C27.2,6.3 25.5,5.7 23.5,5.7 Z M19.6,11.3 C20.1,9.6 21.6,8.4 23.4,8.4 C25.4,8.4 26.7,9.5 27.1,11.3 L19.6,11.3 Z" id="Shape"></path>
            <path d="M15.9,5.9 C15.9,2.5 13.2,0.4 8.9,0.4 L0.4,0.4 L0.4,20 L4.1,20 L4.1,12 L7.3,12 L11.9,20 L16.2,20 L11.4,11.7 C14.4,10.6 15.9,8.7 15.9,5.9 Z M8.9,8.8 L4.1,8.8 L4.1,3.6 L8.8,3.6 C11,3.6 12.1,4.5 12.1,6.2 C12.2,7.9 11.1,8.8 8.9,8.8 Z" id="Shape"></path>
            <path d="M89.3,8.9 L89.3,6.1 L86.2,6.1 L86.2,2.3 L82.6,2.3 L82.6,16.2 C82.6,18.5 84.5,20.3 86.8,20.3 L89.3,20.3 L89.3,17.2 L87.5,17.2 C86.8,17.2 86.3,16.7 86.3,16 L86.3,8.9 L89.3,8.9 Z" id="Path"></path>
        </g>
    </g>
</svg>