<svg height="33" viewBox="0 0 102 33" width="102" xmlns="http://www.w3.org/2000/svg"><g fill="#090947" transform="translate(.756 -.24)"><path d="m28.3641406 22.1448468c-.2566116-.5745126-.5046695-1.1229109-.7270663-1.6364903-2.2068602-4.8398328-4.5420261-9.7318941-6.9969442-14.54561277l-.1111984-.20020892c-.2566116-.49907149-.5075208-1.00104456-.7527275-1.50591921-.3133028-.62222827-.694958-1.20627826-1.137645-1.74094708-.9664721-1.25015319-2.440097-1.98395208-4.0031416-1.9933844-1.5586657.0041601-3.0360798.70812819-4.0373566 1.92374652-.4326157.54228297-.81354728 1.1252256-1.13764498 1.74094707-.24520668.50487465-.49611585 1.00684773-.75272749 1.50591922l-.09409094.19150418c-2.40359575 4.83112809-4.7644229 9.70577989-6.90285328 14.51949859v.0609332c-.22239676.5135793-.47045469 1.0619777-.72706633 1.6364902-.19958684.3539926-.37921499.7428041-.53888446 1.1664345-.40456128 1.1115591-.53382402 2.3074213-.37636375 3.4818942.34392177 2.3881597 1.90185755 4.4138167 4.09723262 5.327298.81200191.3475007 1.68527754.522277 2.56611646.5135794.28607001-.0027543.5717149-.0231025.85537216-.0609331 1.11053724-.1433481 2.18119255-.5134424 3.14776949-1.0880919 1.4708291-.8935237 2.7907297-2.022167 3.9090508-3.3426184 1.1253791 1.3131568 2.4440664 2.4407626 3.9090507 3.3426184.966577.5746495 2.0372323.9447438 3.1477695 1.0880919.2836404.0380013.5692955.0583502.8553722.0609331.8811317.0119504 1.755054-.1629553 2.5661165-.5135794 2.149176-.9523208 3.651684-2.9800252 3.960373-5.3447075.2334017-1.1498617.1353804-2.3438609-.2822728-3.4383705-.1197521-.3830083-.2822728-.8008356-.4362398-1.149025zm-13.7372768 2.8203342c-1.4724499-1.7329405-2.5580633-3.7702491-3.1819844-5.9714484-.1525928-.6409545-.1845191-1.3055203-.0940909-1.9585655.0566193-.4891188.226664-.9575388.4961158-1.3666434.6466909-.8994359 1.6851227-1.4196894 2.7799595-1.3927577 1.0964963-.0458881 2.1406594.4788514 2.7714058 1.3927577.2694.4034944.4422348.8655684.5046696 1.3492339.0916839.6529864.059746 1.3177943-.094091 1.9585655-.636133 2.2013205-1.7202775 4.2418042-3.1819844 5.9888579zm12.5739707 1.5059193c-.2287335 1.6834396-1.3202879 3.1159072-2.8654967 3.7604456-.7578979.3149759-1.5827627.4259003-2.395042.3220752-.8488668-.1186625-1.6643599-.4150519-2.3950421-.8704735-1.354363-.835459-2.5674593-1.8877346-3.592563-3.1162953 1.7805065-2.0421795 3.0846248-4.4673385 3.8149598-7.0943593.2044363-.8954465.2565129-1.8199319.153967-2.7332869-.1181849-.7850046-.4107254-1.5322447-.8553722-2.1848886-1.017132-1.461722-2.6796935-2.3158287-4.4393815-2.2806406-1.7566256-.0216224-3.4133425.8294817-4.4393814 2.2806406-.44464687.6526439-.73718733 1.399884-.8553722 2.1848886-.13476032.9121373-.08233598 1.8427963.15396699 2.7332869.74145851 2.6327881 2.04400701 5.0669161 3.81495981 7.1291783-1.0176938 1.2360625-2.2320949 2.2894699-3.59256305 3.1162952-.73046666.4558799-1.54605678.7523046-2.39504203.8704736-.81220002.091902-1.63417748-.018634-2.39504203-.3220752-1.54520881-.6445385-2.63676325-2.0770061-2.86549672-3.7604457-.10488782-.8465986-.00807223-1.7064518.28227281-2.5069638.09409094-.3220752.24805793-.6441504.41057863-1.0271588.16252071-.3830083.47045469-1.0619777.72706634-1.6016713v-.0609331c2.17264527-4.7876045 4.50781125-9.6622563 6.92851445-14.41504179l.0940909-.19150418c.2566117-.47876044.5046696-.99233983.7527275-1.47980501.2296626-.5026387.5167692-.97596285.8553722-1.41016713.6273407-.75346773 1.5486365-1.18792601 2.519071-1.18792601.9704344 0 1.8917302.43445828 2.519071 1.18792601.3382143.43448172.6252917.90775765.8553721 1.41016713.2566117.47876045.5046696.99233983.7527275 1.47980501l.094091.19150418c2.3893395 4.77019499 4.6902906 9.58681519 6.9028532 14.44986069.2566117.5135794.4704547 1.0880919.7270664 1.6103761.2566116.5222841.3164877.7050835.4105786 1.0271587.2935045.7967148.3989827 1.6524561.307934 2.4982591zm17.5180217-13.7012535v.5135794c-.7826701-.8648427-1.899292-1.3359285-3.0536786-1.2883009-1.6511506-.0223985-3.2392927.6442551-4.3947532 1.8447833-1.1554604 1.2005282-1.7774391 2.8301993-1.7211577 4.5096736-.0562814 1.6794742.5656973 3.3091454 1.7211577 4.5096735 1.1554605 1.2005282 2.7436026 1.8671818 4.3947532 1.8447833 1.1613301.0571425 2.285113-.4265748 3.0536786-1.3144151v.5483984c-.0048795.1215035.0404137.2395436.1249096.3255313.084496.0859877.2004883.1320805.3198839.1271149h2.5661165v-12.073468h-2.5661165c-.2437401.0046376-.4402364.204603-.4447935.4526463zm0 7.7385097c-.5956823.8352449-1.552033 1.3251064-2.5661165 1.3144151-.9404371.0753553-1.8676355-.2622554-2.5476318-.9276414s-1.0478417-1.5949941-1.0107163-2.5542528c-.0371254-.9592586.33072-1.8888667 1.0107163-2.5542528.6799963-.665386 1.6071947-1.0029966 2.5476318-.9276413 1.010816.0034214 1.9612422.4902483 2.5661165 1.314415v4.3001393zm40.9295576-7.3555014c-.9257905-.7873949-2.1044462-1.199614-3.3102903-1.1577298-1.2011734-.0426652-2.3658777.423876-3.2161993 1.2883009v-.5135794c-.0041009-.2415713-.1906488-.4390064-.427686-.4526463h-2.3950421v12.0560585h3.0280175v-8.3913649c.6206898-.7203056 1.5055956-1.148529 2.4463643-1.183844 1.7107443 0 2.3266123.8008357 2.3266123 2.7942201v6.841922h3.0280174v-7.2075209c0-2.0194986-.4105786-3.1772284-1.4797938-4.0738162zm-16.7054182-1.1577298c-1.1632055-.0554344-2.2907931.4163135-3.0793397 1.2883009v-6.78098888h-3.0023563v17.87082168h2.5661165c.2340593-.0086209.4231357-.1972625.4362398-.4352367v-.5396936c.7751389.87851 1.8943491 1.360259 3.0536785 1.314415 1.6496661.0174127 3.2349124-.6508185 4.3892934-1.8502252 1.1543811-1.1994068 1.7779699-2.8261643 1.7266176-4.5042316.0734783-1.680575-.5390406-3.3172927-1.6924352-4.5223724s-2.7450329-1.8712902-4.3978146-1.8407892zm-.5132233 9.7667131c-1.0157627.0181175-1.9752948-.4733736-2.5661164-1.314415v-4.2740251c.6244384-.8000625 1.5626698-1.2806429 2.5661164-1.314415.9404371-.0753553 1.8676356.2622553 2.5476319.9276413.6799963.6653861 1.0478417 1.5949942 1.0107163 2.5542528.019749.9488195-.3557085 1.8618888-1.0336073 2.5136141s-1.59501.9813187-2.5247409.9073469zm26.3540161-9.7667131c-1.1543866-.0476276-2.2710084.4234582-3.0536786 1.2883009v-6.78098888h-3.0280174v17.87082168h2.5661164c.2437402-.0046375.4402365-.2046029.4447936-.4526462v-.5222841c.7751389.87851 1.8943491 1.360259 3.0536785 1.314415 1.6496661.0174127 3.2349124-.6508185 4.3892934-1.8502252 1.1543807-1.1994068 1.7779697-2.8261643 1.7266177-4.5042316.056047-1.6772008-.56337-3.3049531-1.7148042-4.5062974-1.1514344-1.2013443-2.7350105-1.8720756-4.3839994-1.8568642zm-.5046696 9.7667131c-1.0157627.0181175-1.9752948-.4733736-2.5661164-1.314415v-4.2740251c.6244384-.8000625 1.5626698-1.2806429 2.5661164-1.314415.9404371-.0753553 1.8676356.2622553 2.5476319.9276413.6799963.6653861 1.0478417 1.5949942 1.0107163 2.5542528.019749.9488195-.3557085 1.8618888-1.0336073 2.5136141-.6778989.6517253-1.59501.9813187-2.5247409.9073469zm-36.7724489-8.4784122v-.5135794c-.0045571-.2480433-.2010534-.4480087-.4447935-.4526463h-2.5661165v12.1082869h3.0280175v-8.4435933c1.5738847-1.8279944 4.0972326-.9662256 4.0972326-.9662256v-2.829039c-.4519647-.1204782-.9187741-.1732617-1.3857029-.1566852-1.0313502.0568151-2.0045842.5038995-2.7286372 1.2534819zm-6.3981837-6.80710309c-1.1337816 0-2.0528932.93533827-2.0528932 2.08913649 0 1.15379823.9191116 2.0891365 2.0528932 2.0891365s2.0528932-.93533827 2.0528932-2.0891365c-.0046868-1.15181685-.9210586-2.084367-2.0528932-2.08913649z"/><path d="m49.603 12.317h3.028v12.073h-3.028z"/></g></svg>