<svg width="98" height="28" fill="none" xmlns="http://www.w3.org/2000/svg"><path d="M32.056.52c-1.18 1.967-2.282 4.013-3.463 5.98-4.013 7.004-8.026 14.008-12.118 20.933-.08.157-.158.236-.237.393-.157-.079-.236-.236-.314-.315C10.887 18.698 5.772 9.805.736.991.657.835.58.678.5.599.5.441.657.52.815.52h31.241zM98 16.809V24.206h-1.81c-.315 0-.315-.079-.315-.315V17.36c0-.63-.079-1.26-.315-1.81-.708-1.731-3.069-2.046-4.485-.63-.63.63-.866 1.495-.866 2.361v6.453c0 .393-.078.472-.472.393H88.4c-.393 0-.393-.078-.393-.393v-7.319c0-1.18 0-2.439-.079-3.62 0-.236.079-.393.315-.393h1.26c.235 0 .314.079.314.315 0 .472.079 1.023.079 1.574.314-.394.63-.787.944-1.102 1.81-1.574 4.721-1.338 6.138.472.787.944 1.023 2.046 1.023 3.148zM54.09 12.48h2.203c.157 0 .236.157.315.236.865 1.338 1.731 2.597 2.597 3.935 0 .078.078.078.157.157l2.597-4.013c.157-.236.315-.394.63-.394h1.81c.078.158 0 .158-.08.236-1.18 1.653-2.281 3.305-3.54 4.958-.237.315-.237.55 0 .866 1.259 1.73 2.439 3.54 3.62 5.35 0 .08.078.08.157.237h-2.282c-.158 0-.236-.158-.315-.315-.944-1.417-1.889-2.833-2.754-4.328-.551.866-1.102 1.731-1.574 2.518-.394.63-.787 1.26-1.18 1.81-.158.157-.237.236-.473.236h-1.967c-.079-.157.079-.236.157-.315 1.26-1.81 2.44-3.54 3.699-5.35.157-.237.157-.394 0-.63a191.999 191.999 0 0 1-3.463-5.037c-.157.079-.236 0-.314-.157zm15.423 5.194v3.147c0 .315.079.709.236.945.236.55.63.787 1.18.787.394 0 .788 0 1.102-.08.158-.078.315 0 .315.237 0 .393 0 .787.079 1.18 0 .158-.079.236-.158.236-.944.236-1.967.394-2.911 0-1.102-.393-1.574-1.337-1.731-2.44-.08-.471-.08-.865-.08-1.337v-5.98c0-.315-.078-.394-.393-.394h-1.18c-.157 0-.236-.079-.236-.236v-.079c0-.393-.157-.944.079-1.259.236-.236.787-.079 1.18-.079.472 0 .55-.157.55-.55v-1.417c0-.157 0-.236.158-.315l1.653-.472c.236-.078.236 0 .236.236v2.125c0 .315.079.393.393.393h2.282c.237 0 .315.08.315.315v.945c0 .314-.078.393-.393.393h-2.282c-.315 0-.394.079-.394.393v3.306zm-27.857-5.666c-.157-2.046-1.495-3.541-3.777-4.014-1.968-.393-3.856-.236-5.823 0-.394.08-.394.158-.394.473v15.266c0 .393.079.472.472.393h1.26c.314 0 .393-.078.393-.393v-5.745c0-.236 0-.314.315-.314 1.416.157 2.911.078 4.249-.394 2.36-.787 3.462-2.597 3.305-5.272zm-4.328 3.777c-1.102.393-2.203.315-3.305.157-.158 0-.236-.078-.236-.314V9.805c0-.236.078-.314.315-.314.472-.08.944-.08 1.495-.08.472 0 1.023 0 1.495.158 1.574.394 2.44 1.338 2.44 2.833.078 1.653-.709 2.912-2.204 3.384zm42.651-3.541c-2.046-.079-3.777.63-5.036 2.44-.944 1.416-1.102 3.068-.944 4.72.314 2.912 2.596 4.958 6.059 4.958 1.101 0 2.518-.472 3.698-1.652 1.18-1.18 1.574-2.597 1.653-4.17.157-3.385-1.889-6.218-5.43-6.296zm2.44 8.97c-1.338 2.204-4.328 2.125-5.588-.157-1.023-1.888-.944-3.777.08-5.665.629-1.102 1.573-1.574 2.753-1.574 1.18 0 2.125.472 2.676 1.495 1.18 1.967 1.259 3.934.079 5.902zM52.2 23.97c-.157-1.26-.157-2.597-.157-3.856 0-1.416.079-2.754-.079-4.17-.236-2.047-1.495-3.385-3.462-3.62-1.417-.158-2.755 0-4.092.55-.787.315-.787.315-.473 1.102.08.157.158.315.158.472.079.236.157.236.315.158a5.218 5.218 0 0 1 3.069-.709c1.259 0 2.046.63 2.282 1.81.078.236 0 .472.078.787.08.236 0 .315-.314.315-.551 0-1.102 0-1.653.079-1.338.157-2.675.472-3.777 1.337-1.18.945-1.653 2.597-1.102 4.014.472 1.337 1.731 2.203 3.305 2.203 1.495 0 2.676-.55 3.699-1.731.079.472.079.866.157 1.259 0 .157.079.236.236.236h1.495c.236 0 .315-.079.315-.236zm-2.911-2.046c-.787.787-1.732 1.102-2.833.866-.709-.158-1.18-.63-1.338-1.338-.157-.866 0-1.653.708-2.282.708-.63 1.653-.787 2.518-.866.394-.079.787 0 1.18-.079.315 0 .394.08.394.394v.866c.079.865 0 1.73-.63 2.439z" fill="#0A0A47"/></svg>