<svg id="Layer_1" data-name="Layer 1" xmlns="http://www.w3.org/2000/svg" viewBox="0 0 492.28 495.63"><defs><style>.cls-1{fill:#c2c2d1;}.cls-2{fill:#0a0a47;}</style></defs><polygon class="cls-1" points="178.71 96.5 208.04 111.94 208.04 135.09 254.34 135.09 254.34 172.13 223.47 179.85 204.83 203.01 186.43 195.28 155.56 164.41 155.56 142.81 171 127.37 178.71 96.5"/><polygon class="cls-1" points="406.82 316.86 414.07 289.76 350.79 280.5 302.94 295.44 290.71 362.02 340.39 410.36 362.59 410.36 394.11 374.67 406.82 316.86"/><path class="cls-2" d="M197.23,369.73a7.72,7.72,0,1,0,0-15.43h-92.6a7.72,7.72,0,1,0,0,15.43Z"/><path class="cls-2" d="M140.39,243.25a7.72,7.72,0,1,0,0-15.43H104.63a7.72,7.72,0,1,0,0,15.43Z"/><path class="cls-2" d="M439.52,259.69l-86.25-26.92a7.63,7.63,0,0,0-2.48-.41h0a7.57,7.57,0,0,0-2.47.41l-11.47,3.58V116.05a7.66,7.66,0,0,0-2.27-5.45l-67.9-67.91a7.69,7.69,0,0,0-5.46-2.26H73A23.18,23.18,0,0,0,49.83,63.58V203.81a7.72,7.72,0,0,0,15.44,0V63.58A7.72,7.72,0,0,1,73,55.86H253.49v45.82a22.12,22.12,0,0,0,22.09,22.09H321.4v117.4l-59.34,18.52a7.74,7.74,0,0,0-5.42,7.37v.78h-152a7.72,7.72,0,0,0,0,15.44h152v27.79h-152a7.72,7.72,0,1,0,0,15.43h152v12.74a113.91,113.91,0,0,0,21.05,66H73a7.72,7.72,0,0,1-7.71-7.72V273.26a7.72,7.72,0,0,0-15.44,0V397.5A23.18,23.18,0,0,0,73,420.65H290.82a113.8,113.8,0,0,0,58.52,30.73,7.75,7.75,0,0,0,1.45.14,7.91,7.91,0,0,0,1.45-.14,114.32,114.32,0,0,0,92.69-112.14V267.06A7.73,7.73,0,0,0,439.52,259.69ZM275.58,108.34a6.66,6.66,0,0,1-6.65-6.66V66.77l41.56,41.57ZM429.5,339.24a98.86,98.86,0,0,1-78.71,96.69,98.86,98.86,0,0,1-78.71-96.69v-66.5l78.71-24.58,78.71,24.58Z"/><path class="cls-2" d="M348.49,265.05,292.93,282.4a7.71,7.71,0,0,0-5.42,7.36v49.47a83.51,83.51,0,0,0,61.23,80.34,7.61,7.61,0,0,0,4.09,0,83.51,83.51,0,0,0,61.24-80.33V289.76a7.72,7.72,0,0,0-5.42-7.36l-55.56-17.35A7.68,7.68,0,0,0,348.49,265.05Zm50.14,30.39v43.79a68,68,0,0,1-47.84,64.86,68,68,0,0,1-47.85-64.86V295.44l47.85-14.94Z"/><path class="cls-2" d="M331.55,333a7.71,7.71,0,0,0-10.91,10.91l17.78,17.78a7.71,7.71,0,0,0,10.91,0L380.94,330A7.72,7.72,0,1,0,370,319.12l-26.15,26.15Z"/><path class="cls-2" d="M215.75,96.51h-37a7.71,7.71,0,0,0-7.71,7.71v23.15H147.85a7.72,7.72,0,0,0-7.72,7.72v37a7.72,7.72,0,0,0,7.72,7.72H171V203a7.71,7.71,0,0,0,7.71,7.71h37a7.72,7.72,0,0,0,7.72-7.71V179.85h23.15a7.72,7.72,0,0,0,7.72-7.72v-37a7.72,7.72,0,0,0-7.72-7.72H223.47V104.22A7.72,7.72,0,0,0,215.75,96.51Zm23.15,46.3v21.6H215.75a7.72,7.72,0,0,0-7.71,7.72v23.15H186.43V172.13a7.72,7.72,0,0,0-7.72-7.72H155.56v-21.6h23.15a7.72,7.72,0,0,0,7.72-7.72V111.94H208v23.15a7.72,7.72,0,0,0,7.71,7.72Z"/><path class="cls-2" d="M57.55,246.25A7.72,7.72,0,1,0,52.09,244,7.81,7.81,0,0,0,57.55,246.25Z"/></svg>