<svg height="24" viewBox="0 0 98 24" width="98" xmlns="http://www.w3.org/2000/svg"><g fill="#090947" transform="translate(.529 .63)"><path d="m16.8610021 6.54369618h-.0613127c.0021641.89549489-.2221807 1.77648587-.6514478 2.55820304-.2350834-.79443223-.5699616-1.55465685-.996332-2.26182586.3493071-.64872013.538666-1.37402888.5518146-2.11363726.0168897-.71095976-.2848719-1.39114766-.8200578-1.84845768h-.0459846c.1729864.35310514.2572503.74434655.245251 1.13871232-.0182875.66673219-.2000725 1.31823425-.5288224 1.89525408-.5151-.69785167-1.1093467-1.33138665-1.7704052-1.88745468.2166343-.4414107.3344211-.92620363.3448842-1.41949071-.0880804-1.15788281-.9608343-2.09484507-2.0922971-2.24622705v.05459579c.7558402.27147755 1.2519118 1.00979085 1.2262547 1.82505949-.014677.42029915-.1248558.83142071-.3218919 1.20110752-.5995114-.40964607-1.2421844-.74973608-1.9160229-1.01392194.1421326-.27750376.2207353-.58413351.2299227-.89693094 0-.92812854-.85837828-1.42729011-2.00799206-1.42729011-2.84337808 0-6.17725804 2.12923607-6.17725804 4.07908594 0 .69414656.55947871 1.27910152 1.70909249 1.37269431-.16332156.72661183-.24559185 1.46965123-.24525094 2.21502946v.14818859c-1.62478748 0-2.65177579-.85793394-2.65177579-2.08243966-.00224448-.24546674.03133259-.48991266.0996332-.72534416h-.05364864c-.24008495.44900261-.37638505.94781231-.39853278 1.45848771 0 1.16211052 1.08063695 2.23842766 3.06563674 2.33981985.06896052.88789828.22820323 1.76612697.4751737 2.62059827-2.72075261 0-3.73241274-1.3180986-3.83204593-2.05124211h-.05364864c-.06131274 1.38829311 1.30289561 2.93257421 4.26889916 3.00276881.33037474.8658442.77933117 1.6798305 1.33355199 2.4178138h-.29123549c-1.41209581.0920476-2.81201279-.3157774-3.9623355-1.1543111h-.04598455c.29123549.545958 1.6937643 1.8952541 4.36853236 1.8952541h.51349416c.68451601.7250297 1.51625822 1.289314 2.43718121 1.6534727-1.07171569.1234717-2.15596777.0708037-3.21125449-.155988v.0701946c.97397419.3996357 2.01550574.6010204 3.06563674.5927544 3.0024893-.0083628 5.7782959-1.626776 7.3038796-4.2584722l-.076641-.0545958c-.3930014.504008-.8374529.9641494-1.3258879 1.3726943-.1204008-.7039328-.2842254-1.3994546-.4905018-2.0824396.7587339-.5890007 1.4231777-1.2941164 1.9696716-2.0902391.150378.7225931.2121617 1.4613691.1839382 2.1994307h.0919691c.142925-.5783967.2048494-1.1744393.1839382-1.7704637-.0042522-.3635246-.0375733-.7260939-.0996332-1.0841165.4146099-.75667763.6384341-1.60614743.6514478-2.47240968-.0118085-.34604103-.076449-.68810577-.1916023-1.01392194zm-4.3532042-1.95764927c.6327166.5823287 1.2007065 1.23357924 1.6937643 1.94205047-.5412642.77911549-1.1949624 1.47064863-1.9390152 2.05124207-.4259023-.74651008-.8968699-1.4654336-1.4101929-2.15263426.657112-.51324506 1.2245356-1.13551058 1.6784361-1.84065828zm-2.2225866 2.23842765c.4828378.68634716.9426833 1.41169131 1.3795365 2.16823306-.9804127.67875847-2.03811996 1.23397188-3.14994174 1.65347268-.36787641-.77993993-.70509645-1.55987988-1.01932422-2.38661623.99481182-.35208693 1.94033531-.83450608 2.81272176-1.43508951zm-3.17293405.42116758c-.25291503-.70194596-.48283779-1.38829312-.68976827-2.05904147.65210209-.21759765 1.27314301-.52179934 1.84704614-.90473034.45218142.50696096.91202693 1.05291893 1.35654426 1.63787389-.77341044.54473866-1.61003246.99008236-2.49082986 1.32589792zm5.15026975 2.75318802c.3755405.71754474.7664092 1.46628714 1.0423165 2.23062824-.9550702.6729422-1.9838734 1.2304518-3.0656368 1.6612721-.42152502-.7019459-.82772189-1.4428889-1.21859058-2.2228288 1.14616738-.4133661 2.23565068-.9742777 3.24191088-1.66907154zm-.5594787-6.09913041c-.4216009.6348524-.9388864 1.19811968-1.5328184 1.66907149-.45485983-.55110499-.94379967-1.07212275-1.46384154-1.5598799.46374117-.34622296.86556701-.77097209 1.18793423-1.25570332.63919771.31941581 1.24516321.70352416 1.80872571 1.14651173zm-8.92866705-.19498499c0-1.5130835 2.78972944-3.30694538 4.95100335-3.30694538 1.4101929 0 1.67843612.77993994 1.67843612 1.09191592-.00734389.23687284-.06762774.46892886-.17627412.67854776-.74795785-.21719171-1.52143394-.33001391-2.29922756-.33537418v.0623952c.7384813.09355902 1.4637731.27415713 2.16127391.53815856-.27874342.40496152-.62348726.75842956-1.01932422 1.04511954-.47403733-.40139584-.98772819-.751645-1.53281837-1.04511954l-.06131274.0467964c.42152506.35877238.8507142.77993995 1.28756744 1.22450572-.47825589.32177021-.99291446.58364258-1.53281838.77993995-.16094592-.57715556-.29889958-1.13091292-.40619686-1.64567329h-.08430501c.00865587.58023458.05989238 1.15900053.15328183 1.73146669-.49706096.1552732-1.01296499.23927515-1.53281837.24958078.14927862-.67142247.36763235-1.3249775.65144781-1.94984987h-.06897683c-.39470013.60575262-.7042589 1.26467771-.91969102 1.95764927-.82005783-.14818859-1.24924698-.52255977-1.24924698-1.13091293zm1.27223925 4.21167573c0-.09359279 0-.17938619 0-.27297898-.00075047-.68963098.05307213-1.3782036.16094593-2.05904147.61907298-.010019 1.23445964-.09910913 1.83171796-.26517958.1484534.71621441.33262983 1.42427582.55181461 2.12143666-.82764708.26600848-1.68531069.42327072-2.55214259.46796397zm.06897683 1.02952074c.9567546-.02377372 1.90576062-.18123467 2.82038581-.46796397.29123549.77993995.61312734 1.61447574.98866785 2.41001444-1.05241224.350248-2.14440501.5625428-3.24957495.6317514-.27906819-.8374621-.46919998-1.70293102-.5671428-2.58160127zm.91969102 3.54872677c1.14500616-.0495424 2.27870923-.2514431 3.37220042-.6005538.3923977.7589274.82477072 1.4957429 1.29523153 2.2072301-1.05856352.393438-2.1599507.6553146-3.28023132.7799399-.56533735-.7358045-1.03422567-1.5433169-1.39486472-2.402215zm4.33021191 4.7420349c-.86726082-.3752421-1.64976426-.9273561-2.29922756-1.6222751 1.08526863-.1180698 2.15293393-.36679 3.1805981-.740943.4366157.6036098.9183272 1.1720518 1.4408493 1.7002691-.7485455.3031079-1.527164.5227734-2.32221984.6551496zm4.88202654-2.1370355c-.6936738.5297751-1.4445057.9772374-2.2379149 1.3336973-.4613595-.5551558-.8887977-1.1386081-1.2799033-1.7470654 1.0184178-.4007921 1.9858992-.9244953 2.8816985-1.5598799.245251.6239519.4598456 1.2869009.6284556 1.9654486zm-.4905019-3.2055532c-.277287-.7816575-.6023689-1.5448904-.9733397-2.28522402.7851638-.60002842 1.47084-1.32414144 2.0309844-2.14483486.4077352.72487045.7342258 1.49402718.9733396 2.29302345-.5669896.81299143-1.2547551 1.53131783-2.0386484 2.12923603z"/><path d="m.958 5.093v.008z"/><path d="m28.5640704 12.7832158h-7.1046132v10.1392193h3.4641695v-3.1197598h3.7017564c2.4525094 0 3.33388-1.4974847 3.33388-3.4395351-.0306564-2.3242211-.9426833-3.5799244-3.3951927-3.5799244zm-1.4485134 4.5080529h-2.2302507v-2.1214367h2.2302507c.8737065 0 1.2032624.311976 1.2032624 1.0763172 0 .7643411-.3295559 1.0451195-1.2032624 1.0451195z"/><path d="m33.071 22.899h9.304v-2.465h-5.848v-1.357h5.434v-2.464h-5.434v-1.365h5.848v-2.465h-9.304z"/><path d="m50.9585468 12.7832158h-7.1352695v10.1392193h3.4565054v-3.1197598h3.7017564c2.4525094 0 3.3338799-1.4974847 3.3338799-3.4395351.0076641-2.3242211-.9043628-3.5799244-3.3568722-3.5799244zm-1.4485134 4.5080529h-2.2302507v-2.1214367h2.2302507c.8737065 0 1.2032625.311976 1.2032625 1.0763172 0 .7643411-.329556 1.0451195-1.1955984 1.0451195zm14.0329522-.6083532-4.1309455-.7097453c-.1305125-.001306-.2543314-.0589906-.3405888-.1586732-.0862573-.0996826-.1268261-.2319712-.1115926-.3638866 0-.4211676.3525482-.7253441 1.3872006-.7253441.3711542-.0129229.7404304.059038 1.080637.2105837.3197179.121185.5309674.4327487.5288223.77994h4.0236482c-.1226254-2.1370355-1.7320847-3.3147448-5.6331075-3.3147448-2.8433781 0-5.0659647.7097454-5.0659647 3.3303436-.0973605 1.4531402.9655114 2.7185164 2.3911967 2.8467808l3.9470073.6785478c.3549793.0167911.6329709.3169405.6284555.6785477 0 .4835628-.2912355.818937-1.3718724.818937-.4042705.026122-.8088444-.0460621-1.1802702-.2105838-.2470863-.1519692-.3892879-.432349-.3678764-.7253442h-4.1462737c0 2.9793706 2.920019 3.4005382 5.5794589 3.4005382 3.8856946 0 5.6254434-1.1621105 5.6254434-3.6267208-.0229923-1.6534726-1.0959651-2.6127988-2.8433781-2.909176z"/><path d="m67.49 12.791h3.457v10.116h-3.457z"/><path d="m78.0127911 14.9826464c.9887779-.0221198 1.8132184.7648722 1.8547102 1.7704637h3.9010228c-.4521815-4.0088913-3.6711-4.3208673-5.755733-4.3208673s-5.9856558.1715868-5.9856558 5.4127833c0 5.2411964 3.8856946 5.4127832 5.9856558 5.4127832 2.0999611 0 3.4335131-.4133682 4.2842273-1.1465117.8431679-.8260269 1.3655834-1.9336074 1.4715057-3.1197598h-3.9010228c-.1011689 1.0412398-.9976316 1.811848-2.0233202 1.7392661-1.2645752 0-2.1306176-.77994-2.1306176-2.8623796 0-2.0824397.9273551-2.8857779 2.2992276-2.8857779zm12.5921029-2.5504036c-2.0999612 0-5.9856557.1715868-5.9856557 5.4127833 0 5.2411964 3.8856945 5.4127832 5.9856557 5.4127832s5.9626635-.1715868 5.9626635-5.4127832c0-5.2411965-3.832046-5.4127833-5.9626635-5.4127833zm0 8.2751629c-1.4101929 0-2.2992276-.77994-2.2992276-2.8623796 0-2.0590415.8966988-2.8623797 2.2992276-2.8623797s2.2992276.77994 2.2992276 2.8623797c0 2.0824396-.8966988 2.8623796-2.3068917 2.8623796z"/></g></svg>