<svg id="Layer_1" data-name="Layer 1" xmlns="http://www.w3.org/2000/svg" viewBox="0 0 492.28 495.63"><defs><style>.cls-1{fill:#0a0a47;}.cls-2{fill:#c2c2d1;}.cls-3{fill:none;}.cls-4{fill:#fff;}.cls-5{fill:#4d9eff;}</style></defs><path class="cls-1" d="M381.52,273.28H302.36a30.59,30.59,0,0,0-30.59,30.6V383a30.59,30.59,0,0,0,30.59,30.59h79.16A30.59,30.59,0,0,0,412.11,383V303.88A30.59,30.59,0,0,0,381.52,273.28Zm-51,88.58-11,17.15H300.46l16.68-24.27a20,20,0,0,0,0-22.3L300.46,307.9h20c1.26,2.12,3.92,6.37,6.51,10.48.72,1.13,2.13,3.4,3.82,6.13A35.39,35.39,0,0,1,330.55,361.86Zm36.19-7.12L383.42,379H364.33l-11-17.15a35.39,35.39,0,0,1-.27-37.35c1.69-2.73,3.11-5,3.82-6.13,2.59-4.11,5.25-8.36,6.51-10.48h20L366.7,332.44A20,20,0,0,0,366.74,354.74Z"/><path class="cls-2" d="M411.38,61.41h-165v70.2q3,14.61,15.93,7a28.05,28.05,0,0,1,20.35-8.81c17.57,0,31.41,16.28,27.88,34.86a28.64,28.64,0,0,1-22.39,22.69,28,28,0,0,1-25.79-8.24q-12.92-7.68-16,7.05l-.24,42.4.05,22.54h.45l25.75.07v-4.55H318a8,8,0,0,0,1.82-.7c-.12-.44,10.72-21,4.17-10.62-14.81-15.26-18.38-31.92-2-45.48a37.47,37.47,0,0,1,24-8.57c31.84,0,42.29,33,19.86,56.21-.47.88,6.39,7.93,6.25,8.36a12.87,12.87,0,0,0,2.2.68l37.61.05v4.74h24V85.94A24.52,24.52,0,0,0,411.38,61.41Z"/><path class="cls-3" d="M246.85,367.12a.09.09,0,0,1,0-.05v-1.81l-.18-.27.17,69.3Z"/><polygon class="cls-3" points="246.86 438.4 246.86 438.5 246.86 438.4 246.86 438.4"/><path class="cls-2" d="M246.85,438.4v-4.11l-.17-69.3c-4.38-7-11.89-7.06-15.94-2.89a28.64,28.64,0,0,1-20.58,8.71c-22.46,0-38.91-25.75-21.37-49.32a3.56,3.56,0,0,1,.75-.75c15.46-11.45,31.69-8.4,41.16,1.3,4,4.1,11.2,4.28,15.87-2.59l-.17-70.69h-70c-7-4.71-6.84-12.08-2.75-16.15a29.36,29.36,0,0,0,8.06-26.34,28.66,28.66,0,0,0-22.21-22.88c-18.2-3.61-34.12,10.54-34.12,28.47A29.18,29.18,0,0,0,134,232.65c4.13,4.1,4.07,11.69-2.91,16.11H56.69V414A24.53,24.53,0,0,0,81.22,438.5H246.86v-.1Z"/><polygon class="cls-4" points="246.86 438.4 246.85 434.29 246.85 438.4 246.86 438.4"/><polygon class="cls-5" points="436.11 248.94 436.11 218.35 436.11 248.94 436.11 248.94"/><polygon class="cls-5" points="246.22 248.76 246.2 248.76 246.4 248.76 246.34 226.23 246.22 248.76"/><path class="cls-3" d="M162.57,241.09a17.9,17.9,0,0,1,5.2-14.4,20.94,20.94,0,0,0,5.75-18.92,20.44,20.44,0,0,0-15.62-16.18c-12.51-2.48-24.16,7.85-24.16,20.29a20.81,20.81,0,0,0,6.16,14.87,17.82,17.82,0,0,1,5.15,14.64c-.7,6.46-6.44,16-13.94,16H65.05V414c0,8.92,7.25,16.65,16.17,16.65H238.31V368.08c0-.26-.55-.42-.85-.45a.84.84,0,0,0-.74.28c-17.37,17.87-48.51,13.12-59.73-9.2-6.64-13.23-4.74-29,5.08-42.21,12.54-16.87,41.32-13.85,54.56-.29a1,1,0,0,0,.81.34c.25,0,.87-.17.87-.46V257.35H176.42C168.86,257.35,163.19,247.56,162.57,241.09Z"/><path class="cls-3" d="M238.31,129.23V67.39H81.22A16.18,16.18,0,0,0,65.05,83.56V240.65h63c.21-1,.34-.72.37-1a1.41,1.41,0,0,0-.31-1.07,37.32,37.32,0,0,1-11.09-26.71c0-23.06,21.33-41.17,44.1-36.65a37,37,0,0,1,28.79,29.57,37.94,37.94,0,0,1-10.38,33.79,1.42,1.42,0,0,0-.37,1c0,.28.16,0,.38,1h58.74L238.23,184c0-6.63,4.32-14.25,10.52-17s15.24-.86,19.85,4a19.63,19.63,0,0,0,18.18,5.8,20.42,20.42,0,0,0,15.76-16c2.35-12.37-6.68-24.95-19.67-24.95A19.54,19.54,0,0,0,268.58,142c-4.62,4.84-13.87,6.59-19.94,3.87S238.31,135.73,238.31,129.23Z"/><path class="cls-3" d="M162.57,241.09a17.9,17.9,0,0,1,5.2-14.4,20.94,20.94,0,0,0,5.75-18.92,20.44,20.44,0,0,0-15.62-16.18c-12.51-2.48-24.16,7.85-24.16,20.29a20.81,20.81,0,0,0,6.16,14.87,17.82,17.82,0,0,1,5.15,14.64c-.7,6.46-6.44,16-13.94,16H65.05V414c0,8.92,7.25,16.65,16.17,16.65H238.31V368.08c0-.26-.55-.42-.85-.45a.84.84,0,0,0-.74.28c-17.37,17.87-48.51,13.12-59.73-9.2-6.64-13.23-4.74-29,5.08-42.21,12.54-16.87,41.32-13.85,54.56-.29a1,1,0,0,0,.81.34c.25,0,.87-.17.87-.46V257.35H176.42C168.86,257.35,163.19,247.56,162.57,241.09Z"/><path class="cls-1" d="M65.05,83.56A16.18,16.18,0,0,1,81.22,67.39h50V50.68h-50A32.88,32.88,0,0,0,48.34,83.56v72.81l16.71-1.17Z"/><path class="cls-1" d="M443.93,83.56a32.88,32.88,0,0,0-32.87-32.88H131.23V67.39H238.31v61.84c0,6.5,4.29,14,10.33,16.68s15.32,1,19.94-3.87a19.54,19.54,0,0,1,14.29-6.21c13,0,22,12.58,19.67,24.95a20.42,20.42,0,0,1-15.76,16A19.63,19.63,0,0,1,268.6,171c-4.61-4.82-13.77-6.64-19.85-4s-10.48,10.35-10.52,17l.08,56.61H179.57c-.22-1-.35-.75-.38-1a1.42,1.42,0,0,1,.37-1,37.94,37.94,0,0,0,10.38-33.79,37,37,0,0,0-28.79-29.57c-22.77-4.52-44.1,13.59-44.1,36.65a37.32,37.32,0,0,0,11.09,26.71,1.41,1.41,0,0,1,.31,1.07c0,.28-.16,0-.37,1h-63V155.2l-16.71,1.17V414a33.45,33.45,0,0,0,33.35,33.35H377.61a8.37,8.37,0,0,0,2.46-.37h31a32.87,32.87,0,0,0,32.87-32.87v-61h0ZM238.31,430.62H81.22c-8.92,0-16.17-7.73-16.17-16.65V257.35h66.06c7.5,0,13.24-9.5,13.94-16a17.82,17.82,0,0,0-5.15-14.64,20.81,20.81,0,0,1-6.16-14.87c0-12.44,11.65-22.77,24.16-20.29a20.44,20.44,0,0,1,15.62,16.18,20.94,20.94,0,0,1-5.75,18.92,17.9,17.9,0,0,0-5.2,14.4c.62,6.47,6.29,16.26,13.85,16.26h61.89v58.74c0,.29-.62.44-.87.46a1,1,0,0,1-.81-.34c-13.24-13.56-42-16.58-54.56.29-9.82,13.21-11.72,29-5.08,42.21,11.22,22.32,42.36,27.07,59.73,9.2a.84.84,0,0,1,.74-.28c.3,0,.85.19.85.45Zm172.75-.37H377.91l-.29,0-122.43-.08L255,365.26c0-7.51-8.9-13.44-15.56-14.22a17.5,17.5,0,0,0-14.73,5.24c-9.51,9.79-26.71,7.07-32.81-5.07-3.71-7.39-2.55-16.17,3.16-24.18,12.54-8.92,23.78-5.17,29.65.85a17.65,17.65,0,0,0,14.52,5.29c6.68-.69,15.77-6.55,15.77-14.13V257.36l17.59,0V240.49L255,240.44l-.08-55.4a14,14,0,0,1,.69-2.24,10.75,10.75,0,0,1,1.82.74,36.48,36.48,0,0,0,32.48,9.71,37,37,0,0,0,29-29.34c4.28-22.5-12.77-44.78-36.07-44.78a36.09,36.09,0,0,0-25.45,10.43,11.46,11.46,0,0,1-1.79.79,4.37,4.37,0,0,1-.62-2V67.39H411.58c8.92,0,15.66,7.25,15.66,16.17v157H412.11v-.25l-37.6,0a14.25,14.25,0,0,1-2.2-.68,10.54,10.54,0,0,1,.83-1.93c22.43-23.19,4.9-62.65-26.95-62.65a37.52,37.52,0,0,0-24,8.58c-16.42,13.56-17.85,38.87-3,54.12a11.71,11.71,0,0,1,.83,2,7.07,7.07,0,0,1-1.83.7H272.6v16.7h46.53c.38,0,.76,0,1.15-.05,6.15-.5,12.86-4.85,15.34-10.43,2.72-6.1.93-15.36-3.9-20a20.31,20.31,0,0,1,1.15-30.15,20.82,20.82,0,0,1,17.52-4.34c15.7,3,21.66,23.42,10.21,34.46-4.8,4.64-6.61,13.8-3.93,19.9a13.9,13.9,0,0,0,1.3,2.31,20.13,20.13,0,0,0,15.54,8.3l38.6.11v.06h15.13v85.14h0v71.64A16.18,16.18,0,0,1,411.06,430.25Zm1.05-185.16h0Z"/></svg>