<svg id="Layer_1" data-name="Layer 1" xmlns="http://www.w3.org/2000/svg" viewBox="0 0 492.28 495.63"><defs><style>.cls-1{fill:#c2c2d1;}.cls-2{fill:none;}.cls-3{fill:#0a0a47;}</style></defs><path class="cls-1" d="M330.64,187H180.86a11.34,11.34,0,0,1-11.3-11.31V90.36a11.33,11.33,0,0,1,11.3-11.3H306.72a215.66,215.66,0,0,0,4.45,23.22c2.72,10.16,30.78,11.85,30.78,11.85v61.51A11.34,11.34,0,0,1,330.64,187Z"/><path class="cls-2" d="M179.88,474.71H331.32a21.29,21.29,0,0,0-20.24-14.77h-111A21.3,21.3,0,0,0,179.88,474.71Z"/><path class="cls-2" d="M352.25,189.92a6.5,6.5,0,0,1-6.49,6.49H165.45a6.49,6.49,0,0,1-6.49-6.49V79a6.49,6.49,0,0,1,6.49-6.49H290.62a6.49,6.49,0,1,1,0,13H171.94v98H339.27V120.56H332A28.31,28.31,0,0,1,303.7,92.28V57.71H151.58c-4,0-7.39,4.44-7.39,9.69V229.22c0,5.25,3.39,9.69,7.39,9.69H290.72V224.15h-.44a6.49,6.49,0,1,1,0-13h55.48a6.49,6.49,0,0,1,0,13h-.45v14.76h14.32c4,0,7.38-4.44,7.38-9.69V120.56H352.25Zm-60.7-71.7-36.71,36.71a13.42,13.42,0,0,1-19,0L220,139a6.49,6.49,0,0,1,9.17-9.18l15.9,15.9a.43.43,0,0,0,.63,0l36.71-36.7a6.49,6.49,0,1,1,9.18,9.17ZM179.32,224.15H165.45a6.49,6.49,0,1,1,0-13h13.87a6.49,6.49,0,0,1,0,13Zm41.61,0H207.06a6.49,6.49,0,0,1,0-13h13.87a6.49,6.49,0,0,1,0,13Z"/><rect class="cls-2" x="303.7" y="224.15" width="28.63" height="35.57"/><path class="cls-3" d="M367,229.22c0,5.25-3.38,9.69-7.38,9.69H345.31V224.15h.45a6.49,6.49,0,0,0,0-13H290.28a6.49,6.49,0,1,0,0,13h.44v14.76H151.58c-4,0-7.39-4.44-7.39-9.69V67.4c0-5.25,3.39-9.69,7.39-9.69H303.7v-13H151.58c-11.23,0-20.36,10.17-20.36,22.67V229.22c0,12.5,9.13,22.67,20.36,22.67H263V447H248.22V261.9a6.49,6.49,0,0,0-13,0V447H200.12a34.27,34.27,0,0,0-34.23,34.23,6.49,6.49,0,0,0,6.49,6.49H338.82a6.48,6.48,0,0,0,6.49-6.49A34.27,34.27,0,0,0,311.08,447H276V251.89h14.76v14.32a6.5,6.5,0,0,0,6.49,6.49h41.61a6.49,6.49,0,0,0,6.49-6.49V251.89h14.32c11.22,0,20.36-10.17,20.36-22.67V120.56H367ZM311.08,459.94a21.29,21.29,0,0,1,20.24,14.77H179.88a21.3,21.3,0,0,1,20.24-14.77ZM303.7,259.72V224.15h28.63v35.57Z"/><path class="cls-3" d="M339.27,183.43H171.94v-98H290.62a6.49,6.49,0,1,0,0-13H165.45A6.49,6.49,0,0,0,159,79v111a6.49,6.49,0,0,0,6.49,6.49H345.76a6.5,6.5,0,0,0,6.49-6.49V120.56h-13Z"/><path class="cls-3" d="M179.32,211.17H165.45a6.49,6.49,0,1,0,0,13h13.87a6.49,6.49,0,0,0,0-13Z"/><path class="cls-3" d="M220.93,211.17H207.06a6.49,6.49,0,0,0,0,13h13.87a6.49,6.49,0,0,0,0-13Z"/><path class="cls-3" d="M282.37,109.05l-36.71,36.7a.43.43,0,0,1-.63,0l-15.9-15.9A6.49,6.49,0,0,0,220,139l15.9,15.9a13.42,13.42,0,0,0,19,0l36.71-36.71a6.49,6.49,0,1,0-9.18-9.17Z"/><path class="cls-3" d="M388.66,7.32H332A28.32,28.32,0,0,0,303.7,35.6V92.28A28.31,28.31,0,0,0,332,120.56h56.68A28.31,28.31,0,0,0,417,92.28V35.6A28.32,28.32,0,0,0,388.66,7.32Zm16.51,85a16.53,16.53,0,0,1-16.51,16.51H332a16.52,16.52,0,0,1-16.5-16.51V59.79h0V35.6A16.52,16.52,0,0,1,332,19.1h56.68a16.52,16.52,0,0,1,16.51,16.5Z"/><path class="cls-3" d="M376.76,59.8a21.13,21.13,0,1,0-32.87,0,36.31,36.31,0,0,0-19.48,26.29,10.35,10.35,0,0,0,10.18,12.14h51.47a10.35,10.35,0,0,0,10.18-12.14A36.31,36.31,0,0,0,376.76,59.8ZM360.32,37.21A9.35,9.35,0,1,1,351,46.55,9.35,9.35,0,0,1,360.32,37.21Zm-24,49.25a24.68,24.68,0,0,1,47.93,0Z"/></svg>